# Apple ModelIO OBJ File: exit
mtllib exit.mtl
g submesh
v -0.245515 -0.00835737 -0.13
v -0.245515 -0.00835732 0.13
v -0.245515 0.00835737 0.13
v -0.245515 0.00835732 -0.13
v 0.245515 0.00835737 0.13
v 0.245515 0.00835732 -0.13
v 0.245515 -0.00835732 0.13
v 0.245515 -0.00835737 -0.13
v -0.28244 -0.031035 0.16705
v -0.28244 -0.031035 0.2472
v -0.28244 0.031035 0.2472
v -0.28244 0.031035 0.16705
v 0.28244 0.031035 0.2472
v 0.28244 0.031035 0.16705
v 0.28244 -0.031035 0.2472
v 0.28244 -0.031035 0.16705
v -0.28244 0.020315 0.128845
v 0.28244 0.020315 0.128845
v 0.28244 -0.020315 0.128845
v -0.28244 -0.020315 0.128845
vn -1 0 0
vn 0 1 0
vn 1 0 0
vn 0 -1 0
vn 0 0 -1
vn 0 0 1
vn 0 -0.962817 -0.270154
vn 0 0.962817 -0.270154
vt 0.673439 0.786256
vt 0.673439 0.519615
vt 0.69058 0.519615
vt 0.69058 0.786256
vt 0.662743 0.50892
vt 0.397204 0.50892
vt 0.397204 0.00534775
vt 0.662743 0.00534774
vt 0.645602 0.786256
vt 0.645602 0.519615
vt 0.662743 0.519615
vt 0.662743 0.786256
vt 0.938978 0.50892
vt 0.673439 0.50892
vt 0.673439 0.00534774
vt 0.938978 0.00534773
vt 0.966815 0.00534771
vt 0.966815 0.50892
vt 0.949674 0.50892
vt 0.949673 0.00534771
vt 0.994652 0.00534771
vt 0.994652 0.50892
vt 0.977511 0.50892
vt 0.977511 0.00534771
vt 0.412437 0.886376
vt 0.412437 0.804179
vt 0.476092 0.804179
vt 0.476092 0.886376
vt 0.0872055 0.584657
vt 0.00534776 0.584657
vt 0.00534774 0.00534774
vt 0.0872055 0.00534774
vt 0.190084 0.913825
vt 0.190084 0.831628
vt 0.253739 0.831628
vt 0.253739 0.913825
vt 0.219777 0.584657
vt 0.137919 0.584657
vt 0.137919 0.00534776
vt 0.219777 0.00534776
vt 0.386509 0.00534772
vt 0.386509 0.584657
vt 0.344841 0.584657
vt 0.344841 0.00534772
vt 0.334145 0.00534769
vt 0.334146 0.584657
vt 0.27049 0.584657
vt 0.27049 0.0053477
vt 0.259795 0.584657
vt 0.259795 0.00534776
vt 0.201078 0.953007
vt 0.242745 0.953007
vt 0.127223 0.584657
vt 0.127223 0.00534773
vt 0.423431 0.925558
vt 0.465098 0.925558
usemtl Exit_sign
f 1/1/1 2/2/1 3/3/1
f 1/1/1 3/3/1 4/4/1
f 4/5/2 3/6/2 5/7/2
f 4/5/2 5/7/2 6/8/2
f 6/9/3 5/10/3 7/11/3
f 6/9/3 7/11/3 8/12/3
f 8/13/4 7/14/4 2/15/4
f 8/13/4 2/15/4 1/16/4
f 4/17/5 6/18/5 8/19/5
f 4/17/5 8/19/5 1/20/5
f 5/21/6 3/22/6 2/23/6
f 5/21/6 2/23/6 7/24/6
f 9/25/1 10/26/1 11/27/1
f 9/25/1 11/27/1 12/28/1
f 12/29/2 11/30/2 13/31/2
f 12/29/2 13/31/2 14/32/2
f 14/33/3 13/34/3 15/35/3
f 14/33/3 15/35/3 16/36/3
f 16/37/4 15/38/4 10/39/4
f 16/37/4 10/39/4 9/40/4
f 17/41/5 18/42/5 19/43/5
f 17/41/5 19/43/5 20/44/5
f 13/45/6 11/46/6 10/47/6
f 13/45/6 10/47/6 15/48/6
f 19/49/7 16/37/7 9/40/7
f 19/49/7 9/40/7 20/50/7
f 18/51/3 14/33/3 19/52/3
f 14/33/3 16/36/3 19/52/3
f 17/53/8 12/29/8 14/32/8
f 17/53/8 14/32/8 18/54/8
f 20/55/1 9/25/1 17/56/1
f 9/25/1 12/28/1 17/56/1
s off
